P3                        
2 3                               
255                               
0 255 0 50 255 50                 
100 255 100 150 255 150           
200 255 200 250 255 250 
